<svg aria-hidden="true" style="width:0;height:0;position:absolute;overflow:hidden" xmlns="http://www.w3.org/2000/svg"><defs><symbol id="mobilemenu-btn" viewBox="0 0 36 32"><path fill="#fcfcfb" style="fill:var(--color1,#fcfcfb)" d="M0 0h36v4H0V0zm0 14h36v4H0v-4zm0 14h36v4H0v-4z"/></symbol><symbol id="close_24px" viewBox="0 0 32 32"><path d="M31.439 3.166 28.273 0 15.719 12.552 3.167 0 .001 3.166l12.552 12.552L.001 28.272l3.166 3.166 12.552-12.554 12.554 12.554 3.166-3.166-12.554-12.554L31.439 3.166z"/></symbol><symbol id="nice-view" viewBox="0 0 41 32"><path fill="#fcfcfb" style="fill:var(--color1,#fcfcfb)" d="M12.278.376v12.011h-1.407L4.325 2.956h-.118v9.431H2.753V.376h1.408l6.568 9.454h.118V.375h1.431zm4.365 0v12.011h-1.455V.376h1.455zm12.582 3.753H27.77a3.032 3.032 0 0 0-1.216-1.893l-.009-.006a3.252 3.252 0 0 0-.979-.487l-.023-.006a3.915 3.915 0 0 0-1.138-.165h-.012.001-.042c-.717 0-1.385.206-1.95.561l.015-.009c-.586.367-1.053.908-1.402 1.625-.344.715-.516 1.593-.516 2.632 0 1.041.172 1.919.516 2.634.349.715.815 1.257 1.402 1.625a3.627 3.627 0 0 0 1.933.551h.046-.002c.398 0 .782-.055 1.15-.165a3.366 3.366 0 0 0 1.012-.492l-.01.007a3.087 3.087 0 0 0 1.223-1.887l.003-.02h1.454a4.843 4.843 0 0 1-.611 1.67l.012-.022a4.5 4.5 0 0 1-1.079 1.239 4.668 4.668 0 0 1-1.416.757l-.033.01a5.28 5.28 0 0 1-1.669.264h-.039.002c-1.024 0-1.935-.25-2.733-.75-.797-.501-1.425-1.212-1.882-2.135-.458-.923-.686-2.018-.686-3.285s.228-2.362.686-3.285c.457-.923 1.084-1.634 1.882-2.135s1.709-.75 2.733-.75A5.43 5.43 0 0 1 26.1.475a4.644 4.644 0 0 1 1.448.774c.429.337.79.747 1.079 1.231.289.481.489 1.031.599 1.649zm2.351 8.258V.376h7.25v1.29h-5.795v4.058h5.419v1.29h-5.419v4.083h5.888v1.29h-7.341zM2.052 19.989 5.618 30.1h.14l3.565-10.111h1.526L6.438 32H4.936L.526 19.989h1.525zm12.123 0V32h-1.454V19.989h1.455zM17.092 32V19.989h7.249v1.29h-5.794v4.058h5.419v1.29h-5.419v4.083h5.888V32h-7.342zm12.053 0L25.86 19.989h1.478l2.51 9.783h.117l2.557-9.783h1.642l2.558 9.783h.117l2.51-9.783h1.478L37.542 32h-1.501l-2.652-9.572h-.093L30.644 32h-1.501z"/></symbol><symbol id="vector-cross" viewBox="0 0 32 32"><path fill="#f5f5f5" style="fill:var(--color1,#f5f5f5)" d="M16 12.464 28.374.09l3.536 3.534L19.534 16 31.91 28.374l-3.536 3.536L16 19.534 3.624 31.91.09 28.374 12.464 16 .09 3.624 3.624.09 16 12.464z"/></symbol><symbol id="phone" viewBox="0 0 32 32"><path fill="none" stroke="#fcfcfb" style="stroke:var(--color1,#fcfcfb)" stroke-linejoin="round" stroke-linecap="round" stroke-width="1.6" d="M29.376 21.024A49.358 49.358 0 0 1 24 20.069l.336.067a2.48 2.48 0 0 0-2.403.467l.003-.003c-.424.432-1.648 1.64-2.92 2.888-4.577-2.284-8.199-5.909-10.42-10.355L8.536 13c1.24-1.272 2.4-2.488 2.872-2.912a2.5 2.5 0 0 0 .459-2.417l.005.018c-.33-1.346-.642-3.061-.863-4.803l-.025-.245a1.601 1.601 0 0 0-1.849-1.414l.009-.001H2.328A1.202 1.202 0 0 0 1.24 2.318v.004c-.44 6.152 2.992 12.736 3.688 14v.048l.096.184a28.362 28.362 0 0 0 10.4 10.4v0l.352.2c1.6.848 7.96 4.048 13.904 3.608a1.202 1.202 0 0 0 1.112-1.083v-6.813a1.602 1.602 0 0 0-1.409-1.839l-.007-.001z"/></symbol><symbol id="arcticons_spike-email" viewBox="0 0 32 32"><path fill="none" stroke="#fcfcfb" style="stroke:var(--color1,#fcfcfb)" stroke-linejoin="round" stroke-linecap="round" stroke-width="1.333" d="M25.148 27.035c.356-.296.699-.608 1.025-.937M23.88 16a7.874 7.874 0 0 0-15.746.007v.008a7.874 7.874 0 0 0 15.746-.006v-.007 0z"/><path fill="none" stroke="#fcfcfb" style="stroke:var(--color1,#fcfcfb)" stroke-linejoin="round" stroke-linecap="round" stroke-width="1.333" d="M30.333 16v-.025c0-7.916-6.417-14.333-14.333-14.333S1.667 8.059 1.667 15.975c0 2.83.82 5.469 2.236 7.691l-.035-.058-.889 5.413 5.413-.889a14.159 14.159 0 0 0 7.623 2.201 14.25 14.25 0 0 0 5.656-1.162l-.093.036"/><path fill="none" stroke="#fcfcfb" style="stroke:var(--color1,#fcfcfb)" stroke-linejoin="round" stroke-linecap="round" stroke-width="1.333" d="M23.429 18.624c-.963 2.348.605 3.612 1.953 3.919 1.645.373 4.951-1.347 4.951-6.543"/></symbol><symbol id="geo" viewBox="0 0 23 32"><path fill="none" stroke="#fcfcfb" style="stroke:var(--color1,#fcfcfb)" stroke-linejoin="round" stroke-linecap="round" stroke-width="1.454" d="M11.636 1.818C5.683 1.818.858 6.644.858 12.596v.785c.436 5.905 5.338 10.655 10.778 16.8 5.68-6.415 10.778-11.273 10.778-17.585 0-5.953-4.826-10.778-10.778-10.778v0zm0 5.6a5.185 5.185 0 0 1 0 10.37v0a5.185 5.185 0 0 1 0-10.37v0z"/></symbol><symbol id="logo-header" viewBox="0 0 32 32"><path fill="#fcfcfb" style="fill:var(--color1,#fcfcfb)" d="M11.368 6.494v6.649h-.779L6.966 7.922h-.065v5.221h-.805V6.494h.779l3.636 5.234h.065V6.494h.792zM13.785 6.494v6.649h-.805V6.494h.805zM20.75 8.571h-.805a1.674 1.674 0 0 0-.679-1.052c-.167-.121-.352-.212-.555-.273s-.416-.091-.636-.091c-.403 0-.767.102-1.094.305-.325.203-.583.503-.776.899-.19.396-.286.882-.286 1.458s.095 1.062.286 1.458c.193.396.451.696.776.899.327.203.692.305 1.094.305.221 0 .433-.03.636-.091s.389-.15.555-.27a1.714 1.714 0 0 0 .679-1.055h.805c-.061.34-.171.644-.331.912a2.492 2.492 0 0 1-1.399 1.11 2.998 2.998 0 0 1-.945.146c-.567 0-1.071-.139-1.513-.416s-.789-.671-1.042-1.182c-.253-.511-.38-1.117-.38-1.818s.127-1.307.38-1.818c.253-.511.601-.905 1.042-1.182s.946-.416 1.513-.416c.335 0 .65.049.945.146.296.097.564.24.802.429.238.186.437.413.597.682.16.266.271.57.331.912zM22.051 13.143V6.494h4.013v.714h-3.208v2.247h3v.714h-3v2.26h3.26v.714h-4.065zM5.707 17.351l1.974 5.597h.078l1.974-5.597h.844L8.135 24h-.831l-2.442-6.649h.844zM12.418 17.351V24h-.805v-6.649h.805zM14.033 24v-6.649h4.013v.714h-3.208v2.247h3v.714h-3v2.26h3.26V24h-4.065zM20.705 24l-1.818-6.649h.818l1.39 5.416h.065l1.416-5.416h.909l1.416 5.416h.065l1.39-5.416h.818L25.356 24h-.831l-1.468-5.299h-.052L21.537 24h-.831z"/></symbol></defs></svg>